<svg xmlns="http://www.w3.org/2000/svg" xmlns:xlink="http://www.w3.org/1999/xlink" width="430" height="420" viewBox="0 0 430 420">
  <defs>
    <clipPath id="clip-path">
      <rect id="Rectangle_31" data-name="Rectangle 31" width="430" height="420" transform="translate(-84.744 -105)" fill="#2b61a3"/>
    </clipPath>
    <clipPath id="clip-iPhone_14_Pro_Max_1">
      <rect width="430" height="420"/>
    </clipPath>
  </defs>
  <g id="iPhone_14_Pro_Max_1" data-name="iPhone 14 Pro Max – 1" clip-path="url(#clip-iPhone_14_Pro_Max_1)">
    <g id="Group_31" data-name="Group 31" transform="translate(84.744 105)" clip-path="url(#clip-path)">
      <path id="Path_147" data-name="Path 147" d="M0,51.2l176.588-31.64,31.639,176.589-88.295,15.82-88.293,15.82Z" transform="translate(26.143 -80.559)" fill="#a6edb5"/>
      <path id="Path_148" data-name="Path 148" d="M6.407,196.648a89.7,89.7,0,1,0,89.7-89.7,89.7,89.7,0,0,0-89.7,89.7m89.7-22.425a22.425,22.425,0,1,1-22.425,22.425,22.425,22.425,0,0,1,22.425-22.425" transform="translate(34.149 28.652)" fill="#a6edb5"/>
      <path id="Path_149" data-name="Path 149" d="M110.6,22.425A22.425,22.425,0,1,1,88.178,0,22.425,22.425,0,0,1,110.6,22.425" transform="translate(108.312 -105)" fill="#a6edb5"/>
    </g>
  </g>
</svg>
